# xmcd
#
# Track frame offsets: 
#        150
#        13968
#        35050
#        58300
#        71890
#        96830
#        113138
#        128155
#        152133
#        174048
#        194138
#        214258
#        239140
#
# Disc length: 3324 seconds
#
# Revision: 0
# Processed by: cddbd v1.4PL0 Copyright (c) Steve Scherf et al.
# Submitted via: ExactAudioCopy v0.90b4
#
DISCID=cb0cfa0d
DTITLE=Frankfurt city blues band - Don´t tell my mother
DYEAR=1900
DGENRE=Blues
TTITLE0=Don´t tell my mother
TTITLE1=Danger Zone
TTITLE2=Love by phone
TTITLE3=Ape around you
TTITLE4=Frankfurt in my heart
TTITLE5=She loves you
TTITLE6=Hallelujah, i love her so
TTITLE7=Found myself dead
TTITLE8=Nothing but a conversation
TTITLE9=Back in your arms
TTITLE10=The band is on the road
TTITLE11=Can´t see my baby once
TTITLE12=Moondrunk
EXTD=
EXTT0=
EXTT1=
EXTT2=
EXTT3=
EXTT4=
EXTT5=
EXTT6=
EXTT7=
EXTT8=
EXTT9=
EXTT10=
EXTT11=
EXTT12=
PLAYORDER=
